# xmcd
#
# Track frame offsets: 
#        150
#        12492
#        23919
#        34204
#        48020
#        57836
#        65899
#        79339
#        91407
#        99433
#        111134
#        125340
#        135062
#        147300
#        154086
#        162897
#
# Disc length: 2309 seconds
#
# Revision: 1
# Processed by: cddbd v1.5.2PL0 Copyright (c) Steve Scherf et al.
# Submitted via: ExactAudioCopy v0.99pb3
#
DISCID=ce090310
DTITLE=Willie Nelson - Ultimate Legends
DYEAR=1900
DGENRE=Country
TTITLE0=Shelter In My Arms
TTITLE1=Is There Something On Your Mind
TTITLE2=Broken Promises
TTITLE3=Home Is Where You're Happy
TTITLE4=I Didn't Sleep A Wink
TTITLE5=Things To Remeber
TTITLE6=Everything But You
TTITLE7=Happiness Lives Next Door
TTITLE8=Half A Man
TTITLE9=The Last Letter
TTITLE10=Rainy Day Blues
TTITLE11=I'm Gonna Lose A Lot Of Teardrops
TTITLE12=I Can't Find The Time
TTITLE13=Both Ends Of The Candle
TTITLE14=The Ghost
TTITLE15=Blame It On The Times
EXTD=
EXTT0=
EXTT1=
EXTT2=
EXTT3=
EXTT4=
EXTT5=
EXTT6=
EXTT7=
EXTT8=
EXTT9=
EXTT10=
EXTT11=
EXTT12=
EXTT13=
EXTT14=
EXTT15=
PLAYORDER=
